# xmcd
#
# Track frame offsets: 
#        150
#        22730
#        41565
#        59962
#        81812
#        101805
#        123690
#        142497
#        161445
#        182440
#        208437
#        226942
#        247967
#        270160
#        291137
#        312395
#
# Disc length: 4477 seconds
#
# Revision: 1
# Processed by: cddbd v1.5.2PL0 Copyright (c) Steve Scherf et al.
# Submitted via: ExactAudioCopy v1.0b3
#
DISCID=eb117b10
DTITLE=Celine Dion - Let's Talk  About Love
DYEAR=1997
DGENRE=Country
TTITLE0=The Reason
TTITLE1=Immortality
TTITLE2=Treat Her Like A Lady
TTITLE3=Why Oh Why
TTITLE4=Love Is On The Way
TTITLE5=Tell Him
TTITLE6=Amar Haciendo El Amor
TTITLE7=When I Need You
TTITLE8=Miles To Go
TTITLE9=Us
TTITLE10=Just A Little Bit Of Love
TTITLE11=My  Heart Will Go On
TTITLE12=Where Is The Love
TTITLE13=Be The Man
TTITLE14=I Hate You, Then I Love You
TTITLE15=Let'sTalk About Love
EXTD=
EXTT0=
EXTT1=
EXTT2=
EXTT3=
EXTT4=
EXTT5=
EXTT6=
EXTT7=
EXTT8=
EXTT9=
EXTT10=
EXTT11=
EXTT12=
EXTT13=
EXTT14=
EXTT15=
PLAYORDER=
